<?xml version="1.0" encoding="iso-8859-1"?>
<!-- Generator: Adobe Illustrator 19.0.0, SVG Export Plug-In . SVG Version: 6.00 Build 0)  -->
<svg version="1.1" id="Capa_1" fill="#f26c4f" xmlns="http://www.w3.org/2000/svg" xmlns:xlink="http://www.w3.org/1999/xlink" x="0px" y="0px"
	 viewBox="0 0 512 512" style="enable-background:new 0 0 512 512;" xml:space="preserve">
<g>
	<g>
		<path d="M384.666,19.331C350.145,6.865,304.451,0,256,0s-94.145,6.865-128.666,19.331C89.667,32.932,68.923,52.293,68.923,73.846
			v364.308c0,21.553,20.744,40.914,58.411,54.516C161.855,505.135,207.549,512,256,512s94.145-6.865,128.666-19.33
			c37.667-13.602,58.411-32.963,58.411-54.516V73.846C443.077,52.293,422.333,32.932,384.666,19.331z M134.023,37.853
			c32.43-11.711,75.748-18.16,121.977-18.16c46.229,0,89.547,6.449,121.977,18.16c28.433,10.268,45.408,23.723,45.408,35.994
			c0,12.27-16.975,25.726-45.408,35.994C345.547,121.551,302.229,128,256,128s-89.547-6.449-121.977-18.16
			C105.59,99.572,88.615,86.116,88.615,73.846C88.615,61.576,105.59,48.12,134.023,37.853z M88.615,157.321
			c11.055,8.756,26.59,16.489,46.203,22.828c1.006,0.326,2.026,0.48,3.03,0.48c4.156,0,8.021-2.654,9.368-6.821
			c1.672-5.174-1.168-10.724-6.341-12.396c-32.235-10.418-52.259-25.108-52.259-38.335v-15.029c0.305,0.242,0.623,0.482,0.934,0.722
			c0.232,0.179,0.46,0.359,0.696,0.537c0.57,0.431,1.154,0.859,1.746,1.285c0.117,0.085,0.229,0.17,0.348,0.254
			c0.713,0.508,1.443,1.011,2.187,1.511c0.222,0.149,0.45,0.295,0.674,0.443c0.532,0.352,1.066,0.701,1.613,1.049
			c0.292,0.185,0.59,0.369,0.886,0.553c0.497,0.309,0.998,0.617,1.507,0.924c0.318,0.191,0.638,0.381,0.961,0.57
			c0.513,0.301,1.032,0.602,1.557,0.899c0.322,0.183,0.642,0.365,0.969,0.547c0.569,0.317,1.147,0.631,1.73,0.943
			c0.29,0.157,0.577,0.314,0.871,0.469c0.797,0.42,1.607,0.838,2.428,1.251c0.087,0.043,0.17,0.089,0.257,0.132
			c0.913,0.457,1.842,0.909,2.784,1.358c0.281,0.134,0.569,0.265,0.853,0.398c0.671,0.314,1.344,0.627,2.029,0.936
			c0.353,0.16,0.712,0.318,1.069,0.477c0.636,0.282,1.276,0.562,1.924,0.841c0.376,0.161,0.754,0.322,1.134,0.482
			c0.658,0.277,1.323,0.551,1.994,0.825c0.37,0.151,0.74,0.302,1.115,0.452c0.742,0.297,1.497,0.591,2.254,0.883
			c0.307,0.118,0.61,0.238,0.92,0.356c1.079,0.411,2.169,0.816,3.278,1.217c24.811,8.959,55.395,15.025,88.626,17.729
			c13.005,1.057,26.413,1.601,40.04,1.601c13.627,0,27.036-0.544,40.039-1.601c33.231-2.704,63.815-8.77,88.626-17.729
			c1.109-0.4,2.199-0.806,3.278-1.217c0.31-0.118,0.613-0.237,0.921-0.356c0.758-0.292,1.511-0.586,2.254-0.883
			c0.374-0.15,0.744-0.301,1.115-0.452c0.67-0.273,1.336-0.547,1.994-0.825c0.38-0.16,0.759-0.321,1.134-0.482
			c0.648-0.278,1.289-0.558,1.924-0.841c0.357-0.159,0.716-0.317,1.069-0.477c0.685-0.309,1.359-0.622,2.029-0.936
			c0.284-0.133,0.572-0.264,0.853-0.398c0.942-0.448,1.872-0.901,2.784-1.358c0.087-0.043,0.17-0.089,0.257-0.132
			c0.821-0.414,1.631-0.831,2.428-1.251c0.294-0.156,0.582-0.313,0.872-0.47c0.581-0.312,1.159-0.626,1.727-0.942
			c0.327-0.182,0.649-0.366,0.972-0.549c0.524-0.297,1.043-0.597,1.555-0.898c0.323-0.19,0.644-0.38,0.961-0.571
			c0.509-0.306,1.011-0.614,1.507-0.924c0.296-0.184,0.595-0.368,0.886-0.553c0.547-0.348,1.081-0.697,1.613-1.049
			c0.224-0.148,0.453-0.294,0.674-0.443c0.744-0.5,1.474-1.003,2.187-1.511c0.118-0.084,0.23-0.169,0.348-0.254
			c0.593-0.425,1.176-0.854,1.746-1.285c0.236-0.178,0.464-0.358,0.696-0.537c0.312-0.238,0.63-0.478,0.935-0.72v93.549
			c0,12.27-16.975,25.726-45.408,35.994c-32.43,11.711-75.748,18.16-121.977,18.16s-89.547-6.449-121.977-18.16
			c-28.433-10.268-45.408-23.723-45.408-35.994V157.321z M88.615,235.787c9.619,7.641,22.617,14.51,38.719,20.325
			c34.521,12.466,80.215,19.331,128.666,19.331s94.145-6.865,128.666-19.331c16.102-5.815,29.1-12.685,38.719-20.325v83.964
			c0,12.27-16.975,25.726-45.408,35.994c-32.43,11.711-75.748,18.16-121.977,18.16s-89.547-6.449-121.977-18.16
			c-28.433-10.268-45.408-23.723-45.408-35.994V235.787z M423.386,438.154c-0.001,12.27-16.976,25.726-45.409,35.994
			c-32.43,11.711-75.748,18.16-121.977,18.16s-89.547-6.449-121.977-18.16c-28.433-10.268-45.408-23.723-45.408-35.994v-84.213
			c9.619,7.641,22.617,14.51,38.719,20.325c34.521,12.466,80.215,19.331,128.666,19.331s94.145-6.865,128.666-19.331
			c16.102-5.815,29.1-12.685,38.719-20.325v15.29c0,13.227-20.024,27.917-52.258,38.335c-5.175,1.672-8.014,7.222-6.341,12.396
			c1.347,4.168,5.211,6.821,9.368,6.821c1.003,0,2.024-0.155,3.03-0.481c19.613-6.339,35.147-14.072,46.202-22.828V438.154z"/>
	</g>
</g>
<g>
	<g>
		<path d="M177.043,176.443c-0.127-0.63-0.325-1.25-0.571-1.841c-0.246-0.601-0.542-1.172-0.896-1.703
			c-0.363-0.542-0.777-1.044-1.231-1.497c-0.453-0.453-0.955-0.866-1.497-1.231c-0.532-0.354-1.103-0.65-1.694-0.896
			c-0.601-0.246-1.221-0.443-1.851-0.561c-1.26-0.256-2.57-0.256-3.84,0c-0.63,0.118-1.25,0.315-1.841,0.561
			c-0.601,0.246-1.171,0.542-1.702,0.896c-0.542,0.364-1.045,0.778-1.498,1.231c-0.453,0.453-0.867,0.955-1.221,1.497
			c-0.353,0.532-0.66,1.103-0.906,1.703c-0.246,0.591-0.443,1.211-0.56,1.841c-0.129,0.63-0.197,1.28-0.197,1.92
			c0,0.64,0.068,1.29,0.197,1.92c0.117,0.63,0.314,1.25,0.56,1.841c0.246,0.601,0.552,1.172,0.906,1.703
			c0.354,0.542,0.768,1.044,1.221,1.497c1.831,1.831,4.372,2.885,6.961,2.885c0.639,0,1.29-0.069,1.92-0.197
			c0.63-0.118,1.25-0.315,1.851-0.561c0.591-0.246,1.162-0.551,1.694-0.906c0.542-0.354,1.044-0.768,1.497-1.221
			c0.454-0.453,0.867-0.955,1.231-1.497c0.354-0.532,0.65-1.103,0.896-1.703c0.246-0.591,0.443-1.211,0.571-1.841
			c0.128-0.63,0.187-1.28,0.187-1.92C177.23,177.723,177.17,177.073,177.043,176.443z"/>
	</g>
</g>
<g>
	<g>
		<path d="M354.264,422.597c-0.117-0.63-0.315-1.25-0.561-1.851c-0.246-0.591-0.551-1.162-0.906-1.694
			c-0.354-0.542-0.767-1.044-1.221-1.497c-0.453-0.453-0.955-0.866-1.497-1.231c-0.532-0.354-1.103-0.65-1.703-0.896
			c-0.591-0.246-1.21-0.443-1.84-0.561c-1.27-0.256-2.58-0.256-3.84,0c-0.63,0.118-1.25,0.315-1.851,0.561
			c-0.592,0.246-1.162,0.542-1.694,0.896c-0.542,0.364-1.045,0.778-1.498,1.231c-0.453,0.453-0.866,0.955-1.221,1.497
			c-0.364,0.532-0.66,1.103-0.906,1.694c-0.246,0.601-0.443,1.221-0.56,1.851c-0.129,0.63-0.197,1.28-0.197,1.92
			s0.068,1.29,0.197,1.92c0.117,0.63,0.314,1.25,0.56,1.841c0.246,0.601,0.542,1.172,0.906,1.703
			c0.354,0.542,0.768,1.044,1.221,1.497c0.453,0.453,0.955,0.866,1.498,1.221c0.532,0.354,1.102,0.66,1.694,0.906
			c0.601,0.246,1.221,0.443,1.851,0.561c0.63,0.128,1.28,0.197,1.92,0.197c0.639,0,1.29-0.069,1.92-0.197
			c0.63-0.118,1.25-0.315,1.84-0.561c0.601-0.246,1.172-0.551,1.703-0.906c0.542-0.354,1.044-0.768,1.497-1.221
			c0.454-0.453,0.867-0.955,1.221-1.497c0.354-0.532,0.66-1.103,0.906-1.703c0.246-0.591,0.443-1.211,0.561-1.841
			c0.128-0.63,0.197-1.28,0.197-1.92S354.392,423.227,354.264,422.597z"/>
	</g>
</g>
<g>
</g>
<g>
</g>
<g>
</g>
<g>
</g>
<g>
</g>
<g>
</g>
<g>
</g>
<g>
</g>
<g>
</g>
<g>
</g>
<g>
</g>
<g>
</g>
<g>
</g>
<g>
</g>
<g>
</g>
</svg>
