<?xml version="1.0"?>
<svg xmlns="http://www.w3.org/2000/svg" viewBox="0 0 64 64" fill="#f26c4f" width="512" height="512"><g id="Spider_web" data-name="Spider web"><path d="M60.926,43.192l-4.019-1.706-.334-1.108a28.912,28.912,0,0,1,0-16.756l.162-.537,4.382-1.771a1,1,0,1,0-.749-1.854l-4.045,1.634-1.376-.764A28.982,28.982,0,0,1,43.711,9.118l-.518-.928,1.84-4.335a1,1,0,1,0-1.841-.781L41.486,7.093l-1.108.334a28.9,28.9,0,0,1-16.756,0l-.537-.162L21.314,2.883a1,1,0,1,0-1.854.749l1.634,4.044-.844,1.5A29.006,29.006,0,0,1,9.178,20.25l-.99.556L3.855,18.967a1,1,0,1,0-.781,1.841l4.019,1.706.334,1.108a28.912,28.912,0,0,1,0,16.756l-.162.537L2.883,42.686a1,1,0,0,0,.375,1.927,1.011,1.011,0,0,0,.374-.073l4.045-1.634,1.376.764A28.982,28.982,0,0,1,20.289,54.882l.518.928-1.84,4.335a1,1,0,1,0,1.841.781l1.706-4.019,1.108-.334a28.9,28.9,0,0,1,16.756,0l.537.162,1.771,4.382a1,1,0,1,0,1.854-.749l-1.634-4.044.8-1.443A28.986,28.986,0,0,1,54.947,43.67l.86-.478,4.338,1.841a1,1,0,0,0,.781-1.841Zm-6.394-2.714-4.575-1.942a34.676,34.676,0,0,1-.068-12.685L54.4,24.029A30.885,30.885,0,0,0,54.532,40.478Zm-17.784-17.1a42.817,42.817,0,0,0,4.022,4l-6.906,2.79Zm-4.725,6.013-2.756-6.821a43.058,43.058,0,0,0,5.657-.013Zm-1.855.749-6.8-2.887a42.8,42.8,0,0,0,4.008-4.028Zm-.781,1.841L22.573,34.73a42.626,42.626,0,0,0-.013-5.651Zm.749,1.855-2.884,6.794a42.817,42.817,0,0,0-4.022-4Zm1.841.781,2.756,6.821c-.912-.058-1.826-.1-2.733-.1-.971,0-1.948.045-2.924.111Zm1.855-.749,6.794,2.884a42.827,42.827,0,0,0-4,4.023Zm.781-1.841,6.814-2.753a42.625,42.625,0,0,0,.013,5.651Zm8.248-5.49a40.657,40.657,0,0,1-5.24-5.215L39.412,17.1a36.7,36.7,0,0,0,7.756,7.7Zm-7.056-6.057a41.1,41.1,0,0,1-7.375.019l-1.7-4.214a37.194,37.194,0,0,0,10.882-.054Zm-9.275.654a40.807,40.807,0,0,1-5.22,5.246l-4.22-1.791a36.725,36.725,0,0,0,7.7-7.763ZM20.483,28.2a40.68,40.68,0,0,1,.019,7.37l-4.218,1.7a36.6,36.6,0,0,0-.054-10.879Zm.656,9.27a40.657,40.657,0,0,1,5.24,5.215L24.588,46.9a36.7,36.7,0,0,0-7.756-7.7ZM28.2,43.524a41.1,41.1,0,0,1,7.375-.019l1.7,4.214a36.348,36.348,0,0,0-10.882.054Zm9.272-.661a40.8,40.8,0,0,1,5.214-5.243L46.9,39.411a36.7,36.7,0,0,0-7.692,7.76Zm6.05-7.061a40.668,40.668,0,0,1-.019-7.369l4.218-1.7a36.565,36.565,0,0,0,.053,10.879ZM53.941,22.057l-4.594,1.856a34.784,34.784,0,0,1-9.033-8.942l1.9-4.47A30.964,30.964,0,0,0,53.941,22.057ZM40.478,9.468l-1.941,4.573a35.173,35.173,0,0,1-12.687.068L24.029,9.6A30.885,30.885,0,0,0,40.478,9.468Zm-18.485.69.06-.108,1.856,4.594a34.831,34.831,0,0,1-8.944,9.039l-4.468-1.9A30.985,30.985,0,0,0,21.993,10.158ZM9.468,23.522l4.575,1.942a34.676,34.676,0,0,1,.068,12.685L9.6,39.971A30.885,30.885,0,0,0,9.468,23.522Zm.591,18.421,4.594-1.856a34.784,34.784,0,0,1,9.033,8.942l-1.9,4.47A30.964,30.964,0,0,0,10.059,41.943ZM32,53.332a31,31,0,0,0-8.478,1.2l1.941-4.573a35.2,35.2,0,0,1,12.687-.067L39.971,54.4A30.944,30.944,0,0,0,32,53.332Zm9.965.574-.021.038L40.088,49.35a34.812,34.812,0,0,1,8.937-9.037l4.471,1.9A30.967,30.967,0,0,0,41.965,53.906Z"/></g></svg>
